<mxfile host="app.diagrams.net" agent="Mozilla/5.0 (Macintosh; Intel Mac OS X 10_15_7) AppleWebKit/537.36 (KHTML, like Gecko) Chrome/128.0.0.0 Safari/537.36" version="24.7.14">
  <diagram id="C5RBs43oDa-KdzZeNtuy" name="Page-1">
    <mxGraphModel dx="1673" dy="1037" grid="1" gridSize="10" guides="1" tooltips="1" connect="1" arrows="1" fold="1" page="1" pageScale="1" pageWidth="827" pageHeight="1169" math="0" shadow="0">
      <root>
        <mxCell id="WIyWlLk6GJQsqaUBKTNV-0" />
        <mxCell id="WIyWlLk6GJQsqaUBKTNV-1" parent="WIyWlLk6GJQsqaUBKTNV-0" />
        <mxCell id="0" value="&lt;div style=&quot;text-align: right; line-height: 120%; font-size: 12px;&quot;&gt;&lt;span style=&quot;background-color: initial; font-size: 12px;&quot;&gt;&lt;i style=&quot;font-size: 12px;&quot;&gt;anySimpleType&lt;/i&gt;&lt;/span&gt;&lt;/div&gt;&lt;div style=&quot;text-align: center; line-height: 120%; font-size: 12px;&quot;&gt;&lt;span style=&quot;background-color: initial; text-align: right; font-size: 12px;&quot;&gt;&lt;br style=&quot;font-size: 12px;&quot;&gt;&lt;/span&gt;&lt;/div&gt;«&lt;span style=&quot;background-color: initial; font-size: 12px;&quot;&gt;XSDsimpleType&lt;/span&gt;»&lt;br style=&quot;font-size: 12px;&quot;&gt;&lt;b style=&quot;font-size: 12px;&quot;&gt;&lt;div style=&quot;line-height: 120%; font-size: 12px;&quot;&gt;&lt;b style=&quot;background-color: initial; font-size: 12px;&quot;&gt;XSDDatatypes::decimal&lt;/b&gt;&lt;/div&gt;&lt;/b&gt;" style="swimlane;fontStyle=0;align=center;verticalAlign=top;childLayout=stackLayout;horizontal=1;startSize=100;horizontalStack=0;resizeParent=1;resizeParentMax=0;resizeLast=0;collapsible=0;marginBottom=0;html=1;spacing=0;shadow=1;fontSize=12;" parent="WIyWlLk6GJQsqaUBKTNV-1" vertex="1">
          <mxGeometry x="550.75" y="80" width="160" height="90" as="geometry" />
        </mxCell>
        <mxCell id="5" style="edgeStyle=none;html=1;fontFamily=Helvetica;fontSize=12;endArrow=blockThin;endFill=0;strokeWidth=1;endSize=12;targetPerimeterSpacing=0;startSize=6;" parent="WIyWlLk6GJQsqaUBKTNV-1" source="4" target="0" edge="1">
          <mxGeometry relative="1" as="geometry" />
        </mxCell>
        <mxCell id="7" value="" style="group;fontSize=12;" parent="WIyWlLk6GJQsqaUBKTNV-1" vertex="1" connectable="0">
          <mxGeometry x="550.75" y="220" width="160" height="120" as="geometry" />
        </mxCell>
        <mxCell id="4" value="«&lt;span style=&quot;background-color: initial; font-size: 12px;&quot;&gt;PRIMSimpleType&lt;/span&gt;»&lt;br style=&quot;font-size: 12px;&quot;&gt;&lt;b style=&quot;background-color: initial; font-size: 12px;&quot;&gt;Decimal&lt;/b&gt;&lt;span style=&quot;font-family: &amp;quot;88a7a6+Roboto&amp;quot;; font-size: 12px;&quot;&gt;&lt;br style=&quot;font-size: 12px;&quot;&gt;&lt;/span&gt;" style="swimlane;fontStyle=0;align=center;verticalAlign=top;childLayout=stackLayout;horizontal=1;startSize=100;horizontalStack=0;resizeParent=1;resizeParentMax=0;resizeLast=0;collapsible=0;marginBottom=0;html=1;spacing=0;shadow=1;fillColor=#f6fda6;fontSize=12;" parent="7" vertex="1">
          <mxGeometry width="160" height="90" as="geometry" />
        </mxCell>
        <mxCell id="6" value="&lt;font style=&quot;font-size: 12px;&quot;&gt;&lt;i style=&quot;font-size: 12px;&quot;&gt;(from&amp;nbsp;&lt;span style=&quot;background-color: initial; font-size: 12px;&quot;&gt;PrimitiveDataTypes)&lt;/span&gt;&lt;/i&gt;&lt;/font&gt;" style="text;html=1;strokeColor=none;fillColor=none;align=center;verticalAlign=middle;whiteSpace=wrap;rounded=0;shadow=1;fontFamily=Helvetica;fontSize=12;" parent="7" vertex="1">
          <mxGeometry x="5" y="90" width="150" height="30" as="geometry" />
        </mxCell>
        <mxCell id="16" value="" style="group;fontSize=12;" parent="WIyWlLk6GJQsqaUBKTNV-1" vertex="1" connectable="0">
          <mxGeometry x="50" y="480" width="200" height="120" as="geometry" />
        </mxCell>
        <mxCell id="15" value="" style="group;fontSize=12;" parent="16" vertex="1" connectable="0">
          <mxGeometry width="200" height="110" as="geometry" />
        </mxCell>
        <mxCell id="12" value="&lt;font style=&quot;border-color: var(--border-color); font-size: 12px;&quot;&gt;&lt;font style=&quot;border-color: var(--border-color);&quot;&gt;«C&lt;/font&gt;&lt;font style=&quot;border-color: var(--border-color);&quot;&gt;DTComplexType,LDT,ECDMChange,CDT»&lt;/font&gt;&lt;br style=&quot;border-color: var(--border-color); font-size: 12px;&quot;&gt;&lt;/font&gt;&lt;b style=&quot;border-color: var(--border-color); background-color: initial; font-size: 12px;&quot;&gt;NumericType&lt;/b&gt;" style="swimlane;fontStyle=0;align=center;verticalAlign=top;childLayout=stackLayout;horizontal=1;startSize=40;horizontalStack=0;resizeParent=1;resizeParentMax=0;resizeLast=0;collapsible=0;marginBottom=0;html=1;shadow=1;labelBackgroundColor=none;fontFamily=Helvetica;fontSize=12;fillColor=#F6FDA6;" parent="15" vertex="1">
          <mxGeometry x="1.8404907975460247" width="196.31901840490795" height="80" as="geometry" />
        </mxCell>
        <mxCell id="13" value="&lt;span style=&quot;text-align: center; font-size: 12px;&quot;&gt;«&lt;/span&gt;&lt;span style=&quot;border-color: var(--border-color); text-align: center; background-color: initial; font-size: 12px;&quot;&gt;Supplementary&lt;/span&gt;&lt;span style=&quot;text-align: center; font-size: 12px;&quot;&gt;»&lt;/span&gt;&lt;br style=&quot;border-color: var(--border-color); text-align: center; font-size: 12px;&quot;&gt;&lt;span style=&quot;border-color: var(--border-color); text-align: center; background-color: initial; font-size: 12px;&quot;&gt;+&amp;nbsp; &amp;nbsp; format: String [0..1]&lt;/span&gt;" style="text;html=1;strokeColor=none;fillColor=#F6FDA6;align=left;verticalAlign=middle;spacingLeft=4;spacingRight=4;overflow=hidden;rotatable=0;points=[[0,0.5],[1,0.5]];portConstraint=eastwest;shadow=1;labelBackgroundColor=none;fontFamily=Helvetica;fontSize=12;strokeWidth=2;perimeterSpacing=0;" parent="12" vertex="1">
          <mxGeometry y="40" width="196.31901840490795" height="40" as="geometry" />
        </mxCell>
        <mxCell id="14" value="&lt;font style=&quot;font-size: 12px;&quot;&gt;&lt;i style=&quot;font-size: 12px;&quot;&gt;(from&amp;nbsp;&lt;span style=&quot;background-color: initial; font-size: 12px;&quot;&gt;CoreDataTypes)&lt;/span&gt;&lt;/i&gt;&lt;/font&gt;" style="text;html=1;strokeColor=none;fillColor=none;align=center;verticalAlign=middle;whiteSpace=wrap;rounded=0;shadow=1;fontFamily=Helvetica;fontSize=12;" parent="15" vertex="1">
          <mxGeometry x="1.8404907975460247" y="80" width="196.31901840490795" height="30" as="geometry" />
        </mxCell>
        <mxCell id="17" value="" style="group;fontSize=12;" parent="WIyWlLk6GJQsqaUBKTNV-1" vertex="1" connectable="0">
          <mxGeometry x="510" y="480" width="241.5" height="120" as="geometry" />
        </mxCell>
        <mxCell id="18" value="" style="group;fontSize=12;" parent="17" vertex="1" connectable="0">
          <mxGeometry width="241.5" height="110" as="geometry" />
        </mxCell>
        <mxCell id="19" value="&lt;font style=&quot;border-color: var(--border-color); font-size: 12px;&quot;&gt;&lt;font style=&quot;border-color: var(--border-color);&quot;&gt;«C&lt;/font&gt;&lt;font style=&quot;border-color: var(--border-color);&quot;&gt;DTComplexType,LDT,ECDMChange,CDT»&lt;/font&gt;&lt;br style=&quot;border-color: var(--border-color); font-size: 12px;&quot;&gt;&lt;/font&gt;&lt;b style=&quot;border-color: var(--border-color); background-color: initial; font-size: 12px;&quot;&gt;AmountType&lt;/b&gt;" style="swimlane;fontStyle=0;align=center;verticalAlign=top;childLayout=stackLayout;horizontal=1;startSize=40;horizontalStack=0;resizeParent=1;resizeParentMax=0;resizeLast=0;collapsible=0;marginBottom=0;html=1;shadow=1;labelBackgroundColor=none;fontFamily=Helvetica;fontSize=12;fillColor=#F6FDA6;" parent="18" vertex="1">
          <mxGeometry x="2.219999999999999" width="237.06" height="90" as="geometry" />
        </mxCell>
        <mxCell id="20" value="&lt;span style=&quot;text-align: center; font-size: 12px;&quot;&gt;«&lt;/span&gt;&lt;span style=&quot;border-color: var(--border-color); text-align: center; background-color: initial; font-size: 12px;&quot;&gt;Supplementary&lt;/span&gt;&lt;span style=&quot;text-align: center; font-size: 12px;&quot;&gt;»&lt;/span&gt;&lt;br style=&quot;border-color: var(--border-color); text-align: center; font-size: 12px;&quot;&gt;&lt;span style=&quot;border-color: var(--border-color); text-align: center; background-color: initial; font-size: 12px;&quot;&gt;+&amp;nbsp; &amp;nbsp; currency: String [0..1]&lt;br style=&quot;font-size: 12px;&quot;&gt;+&amp;nbsp; &amp;nbsp; currencyCodeListVersion: String [0..1]&lt;br style=&quot;font-size: 12px;&quot;&gt;&lt;/span&gt;" style="text;html=1;strokeColor=none;fillColor=#F6FDA6;align=left;verticalAlign=middle;spacingLeft=4;spacingRight=4;overflow=hidden;rotatable=0;points=[[0,0.5],[1,0.5]];portConstraint=eastwest;shadow=1;labelBackgroundColor=none;fontFamily=Helvetica;fontSize=12;strokeWidth=2;perimeterSpacing=0;" parent="19" vertex="1">
          <mxGeometry y="40" width="237.06" height="50" as="geometry" />
        </mxCell>
        <mxCell id="21" value="&lt;font style=&quot;font-size: 12px;&quot;&gt;&lt;i style=&quot;font-size: 12px;&quot;&gt;(from&amp;nbsp;&lt;span style=&quot;background-color: initial; font-size: 12px;&quot;&gt;CoreDataTypes)&lt;/span&gt;&lt;/i&gt;&lt;/font&gt;" style="text;html=1;strokeColor=none;fillColor=none;align=center;verticalAlign=middle;whiteSpace=wrap;rounded=0;shadow=1;fontFamily=Helvetica;fontSize=12;" parent="17" vertex="1">
          <mxGeometry x="2.2223926380368084" y="90" width="237.05521472392638" height="30" as="geometry" />
        </mxCell>
        <mxCell id="22" style="edgeStyle=none;jumpSize=16;html=1;entryX=0.5;entryY=0;entryDx=0;entryDy=0;strokeWidth=1;fontFamily=Helvetica;fontSize=12;endArrow=blockThin;endFill=0;startSize=6;endSize=12;targetPerimeterSpacing=0;" parent="WIyWlLk6GJQsqaUBKTNV-1" source="12" target="6" edge="1">
          <mxGeometry relative="1" as="geometry">
            <Array as="points">
              <mxPoint x="150" y="410" />
              <mxPoint x="631" y="410" />
            </Array>
          </mxGeometry>
        </mxCell>
        <mxCell id="23" style="edgeStyle=none;jumpSize=16;html=1;strokeWidth=1;fontFamily=Helvetica;fontSize=12;endArrow=none;endFill=0;startSize=6;endSize=12;targetPerimeterSpacing=0;" parent="WIyWlLk6GJQsqaUBKTNV-1" source="19" edge="1">
          <mxGeometry relative="1" as="geometry">
            <mxPoint x="631" y="380" as="targetPoint" />
          </mxGeometry>
        </mxCell>
        <mxCell id="24" value="" style="group;fontSize=12;" parent="WIyWlLk6GJQsqaUBKTNV-1" vertex="1" connectable="0">
          <mxGeometry x="760.75" y="480" width="270" height="120" as="geometry" />
        </mxCell>
        <mxCell id="25" value="" style="group;fontSize=12;" parent="24" vertex="1" connectable="0">
          <mxGeometry width="270" height="110" as="geometry" />
        </mxCell>
        <mxCell id="26" value="&lt;font style=&quot;border-color: var(--border-color); font-size: 12px;&quot;&gt;&lt;font style=&quot;border-color: var(--border-color);&quot;&gt;«C&lt;/font&gt;&lt;font style=&quot;border-color: var(--border-color);&quot;&gt;DTComplexType,LDT,ECDMChange,CDT»&lt;/font&gt;&lt;br style=&quot;border-color: var(--border-color); font-size: 12px;&quot;&gt;&lt;/font&gt;&lt;b style=&quot;border-color: var(--border-color); background-color: initial; font-size: 12px;&quot;&gt;MeasureType&lt;/b&gt;" style="swimlane;fontStyle=0;align=center;verticalAlign=top;childLayout=stackLayout;horizontal=1;startSize=40;horizontalStack=0;resizeParent=1;resizeParentMax=0;resizeLast=0;collapsible=0;marginBottom=0;html=1;shadow=1;labelBackgroundColor=none;fontFamily=Helvetica;fontSize=12;fillColor=#F6FDA6;" parent="25" vertex="1">
          <mxGeometry x="2.4819875776397504" width="265.03602484472054" height="90" as="geometry" />
        </mxCell>
        <mxCell id="27" value="&lt;span style=&quot;text-align: center; font-size: 12px;&quot;&gt;«&lt;/span&gt;&lt;span style=&quot;border-color: var(--border-color); text-align: center; background-color: initial; font-size: 12px;&quot;&gt;Supplementary&lt;/span&gt;&lt;span style=&quot;text-align: center; font-size: 12px;&quot;&gt;»&lt;/span&gt;&lt;br style=&quot;border-color: var(--border-color); text-align: center; font-size: 12px;&quot;&gt;&lt;span style=&quot;border-color: var(--border-color); text-align: center; background-color: initial; font-size: 12px;&quot;&gt;+&amp;nbsp; &amp;nbsp; measureUnit: String [0..1]&lt;br style=&quot;font-size: 12px;&quot;&gt;+&amp;nbsp; &amp;nbsp; measureUnit.CodeListVersion: String [0..1]&lt;br style=&quot;font-size: 12px;&quot;&gt;&lt;/span&gt;" style="text;html=1;strokeColor=none;fillColor=#F6FDA6;align=left;verticalAlign=middle;spacingLeft=4;spacingRight=4;overflow=hidden;rotatable=0;points=[[0,0.5],[1,0.5]];portConstraint=eastwest;shadow=1;labelBackgroundColor=none;fontFamily=Helvetica;fontSize=12;strokeWidth=2;perimeterSpacing=0;" parent="26" vertex="1">
          <mxGeometry y="40" width="265.03602484472054" height="50" as="geometry" />
        </mxCell>
        <mxCell id="28" value="&lt;font style=&quot;font-size: 12px;&quot;&gt;&lt;i style=&quot;font-size: 12px;&quot;&gt;(from&amp;nbsp;&lt;span style=&quot;background-color: initial; font-size: 12px;&quot;&gt;CoreDataTypes)&lt;/span&gt;&lt;/i&gt;&lt;/font&gt;" style="text;html=1;strokeColor=none;fillColor=none;align=center;verticalAlign=middle;whiteSpace=wrap;rounded=0;shadow=1;fontFamily=Helvetica;fontSize=12;" parent="24" vertex="1">
          <mxGeometry x="2.4846625766871155" y="90" width="265.0306748466258" height="30" as="geometry" />
        </mxCell>
        <mxCell id="29" style="edgeStyle=none;jumpSize=16;html=1;strokeWidth=1;fontFamily=Helvetica;fontSize=12;endArrow=none;endFill=0;startSize=6;endSize=12;targetPerimeterSpacing=0;exitX=0.5;exitY=0;exitDx=0;exitDy=0;" parent="WIyWlLk6GJQsqaUBKTNV-1" source="26" edge="1">
          <mxGeometry relative="1" as="geometry">
            <mxPoint x="631" y="380" as="targetPoint" />
            <Array as="points">
              <mxPoint x="896" y="410" />
              <mxPoint x="630" y="410" />
            </Array>
          </mxGeometry>
        </mxCell>
        <mxCell id="30" value="" style="group;fontSize=12;" parent="WIyWlLk6GJQsqaUBKTNV-1" vertex="1" connectable="0">
          <mxGeometry x="56.5" y="640" width="187" height="120" as="geometry" />
        </mxCell>
        <mxCell id="31" value="" style="group;fontSize=12;" parent="30" vertex="1" connectable="0">
          <mxGeometry x="2.842170943040401e-14" width="186.99999999999994" height="110" as="geometry" />
        </mxCell>
        <mxCell id="32" value="&lt;font style=&quot;border-color: var(--border-color); font-size: 12px;&quot;&gt;«BDTSimpleType&lt;/font&gt;&lt;font style=&quot;border-color: var(--border-color); font-size: 12px;&quot;&gt;»&lt;br style=&quot;border-color: var(--border-color); font-size: 12px;&quot;&gt;&lt;/font&gt;&lt;b style=&quot;border-color: var(--border-color); background-color: initial; font-size: 12px;&quot;&gt;IntegerType&lt;/b&gt;" style="swimlane;fontStyle=0;align=center;verticalAlign=top;childLayout=stackLayout;horizontal=1;startSize=40;horizontalStack=0;resizeParent=1;resizeParentMax=0;resizeLast=0;collapsible=0;marginBottom=0;html=1;shadow=1;labelBackgroundColor=none;fontFamily=Helvetica;fontSize=12;fillColor=#F6FDA6;" parent="31" vertex="1">
          <mxGeometry x="1.7208588957055184" width="183.5582822085889" height="80" as="geometry" />
        </mxCell>
        <mxCell id="33" value="&lt;span style=&quot;text-align: center; font-size: 12px;&quot;&gt;«&lt;/span&gt;&lt;span style=&quot;border-color: var(--border-color); text-align: center; background-color: initial; font-size: 12px;&quot;&gt;Facet&lt;/span&gt;&lt;span style=&quot;text-align: center; font-size: 12px;&quot;&gt;»&lt;/span&gt;&lt;br style=&quot;border-color: var(--border-color); text-align: center; font-size: 12px;&quot;&gt;&lt;span style=&quot;border-color: var(--border-color); text-align: center; background-color: initial; font-size: 12px;&quot;&gt;+&amp;nbsp; &amp;nbsp; fractionDigits = 0 {readOnly}&lt;/span&gt;" style="text;html=1;strokeColor=none;fillColor=#F6FDA6;align=left;verticalAlign=middle;spacingLeft=4;spacingRight=4;overflow=hidden;rotatable=0;points=[[0,0.5],[1,0.5]];portConstraint=eastwest;shadow=1;labelBackgroundColor=none;fontFamily=Helvetica;fontSize=12;strokeWidth=2;perimeterSpacing=0;" parent="32" vertex="1">
          <mxGeometry y="40" width="183.5582822085889" height="40" as="geometry" />
        </mxCell>
        <mxCell id="34" value="&lt;font style=&quot;font-size: 12px;&quot;&gt;&lt;i style=&quot;font-size: 12px;&quot;&gt;(from&amp;nbsp;&lt;span style=&quot;background-color: initial; font-size: 12px;&quot;&gt;QualifiedDataTypes)&lt;/span&gt;&lt;/i&gt;&lt;/font&gt;" style="text;html=1;strokeColor=none;fillColor=none;align=center;verticalAlign=middle;whiteSpace=wrap;rounded=0;shadow=1;fontFamily=Helvetica;fontSize=12;" parent="31" vertex="1">
          <mxGeometry x="1.7208588957055184" y="80" width="183.5582822085889" height="30" as="geometry" />
        </mxCell>
        <mxCell id="35" style="edgeStyle=none;jumpSize=16;html=1;entryX=0.5;entryY=0;entryDx=0;entryDy=0;strokeWidth=1;fontFamily=Helvetica;fontSize=12;endArrow=blockThin;endFill=0;startSize=6;endSize=12;targetPerimeterSpacing=0;strokeColor=default;" parent="WIyWlLk6GJQsqaUBKTNV-1" source="32" target="14" edge="1">
          <mxGeometry relative="1" as="geometry" />
        </mxCell>
        <mxCell id="36" value="" style="group;fontSize=12;" parent="WIyWlLk6GJQsqaUBKTNV-1" vertex="1" connectable="0">
          <mxGeometry x="270" y="640" width="200" height="120" as="geometry" />
        </mxCell>
        <mxCell id="37" value="" style="group;fontSize=12;" parent="36" vertex="1" connectable="0">
          <mxGeometry x="3.0397550192945464e-14" width="199.99999999999994" height="110" as="geometry" />
        </mxCell>
        <mxCell id="38" value="&lt;font style=&quot;border-color: var(--border-color); font-size: 12px;&quot;&gt;«BDTSimpleType&lt;/font&gt;&lt;font style=&quot;border-color: var(--border-color); font-size: 12px;&quot;&gt;»&lt;br style=&quot;border-color: var(--border-color); font-size: 12px;&quot;&gt;&lt;/font&gt;&lt;b style=&quot;border-color: var(--border-color); background-color: initial; font-size: 12px;&quot;&gt;PercentageType&lt;/b&gt;" style="swimlane;fontStyle=0;align=center;verticalAlign=top;childLayout=stackLayout;horizontal=1;startSize=40;horizontalStack=0;resizeParent=1;resizeParentMax=0;resizeLast=0;collapsible=0;marginBottom=0;html=1;shadow=1;labelBackgroundColor=none;fontFamily=Helvetica;fontSize=12;fillColor=#F6FDA6;" parent="37" vertex="1">
          <mxGeometry x="1.840490797546009" width="196.32085561497328" height="110" as="geometry" />
        </mxCell>
        <mxCell id="39" value="&lt;span style=&quot;text-align: center; font-size: 12px;&quot;&gt;«&lt;/span&gt;&lt;span style=&quot;border-color: var(--border-color); text-align: center; background-color: initial; font-size: 12px;&quot;&gt;Facet&lt;/span&gt;&lt;span style=&quot;text-align: center; font-size: 12px;&quot;&gt;»&lt;/span&gt;&lt;br style=&quot;border-color: var(--border-color); text-align: center; font-size: 12px;&quot;&gt;&lt;span style=&quot;border-color: var(--border-color); text-align: center; background-color: initial; font-size: 12px;&quot;&gt;+&amp;nbsp; &amp;nbsp; fractionDigits = 0 {readOnly}&lt;br style=&quot;font-size: 12px;&quot;&gt;+&amp;nbsp; &amp;nbsp; minInclusive = 0 {readOnly}&lt;br style=&quot;font-size: 12px;&quot;&gt;+&amp;nbsp; &amp;nbsp; maxInclusive = 100 {readOnly}&lt;br style=&quot;font-size: 12px;&quot;&gt;&lt;/span&gt;" style="text;html=1;strokeColor=none;fillColor=#F6FDA6;align=left;verticalAlign=middle;spacingLeft=4;spacingRight=4;overflow=hidden;rotatable=0;points=[[0,0.5],[1,0.5]];portConstraint=eastwest;shadow=1;labelBackgroundColor=none;fontFamily=Helvetica;fontSize=12;strokeWidth=2;perimeterSpacing=0;" parent="38" vertex="1">
          <mxGeometry y="40" width="196.32085561497328" height="70" as="geometry" />
        </mxCell>
        <mxCell id="40" value="&lt;font style=&quot;font-size: 12px;&quot;&gt;&lt;i style=&quot;font-size: 12px;&quot;&gt;(from&amp;nbsp;&lt;span style=&quot;background-color: initial; font-size: 12px;&quot;&gt;QualifiedDataTypes)&lt;/span&gt;&lt;/i&gt;&lt;/font&gt;" style="text;html=1;strokeColor=none;fillColor=none;align=center;verticalAlign=middle;whiteSpace=wrap;rounded=0;shadow=1;fontFamily=Helvetica;fontSize=12;" parent="WIyWlLk6GJQsqaUBKTNV-1" vertex="1">
          <mxGeometry x="278.2208588957055" y="750" width="183.5582822085889" height="30" as="geometry" />
        </mxCell>
        <mxCell id="41" style="edgeStyle=none;sketch=0;jumpStyle=line;jumpSize=16;html=1;strokeColor=default;strokeWidth=1;fontFamily=Helvetica;fontSize=12;endArrow=none;endFill=0;startSize=6;endSize=12;targetPerimeterSpacing=0;" parent="WIyWlLk6GJQsqaUBKTNV-1" source="38" edge="1">
          <mxGeometry relative="1" as="geometry">
            <mxPoint x="150" y="580" as="targetPoint" />
            <Array as="points">
              <mxPoint x="370" y="600" />
              <mxPoint x="150" y="600" />
            </Array>
          </mxGeometry>
        </mxCell>
        <mxCell id="42" value="" style="group;fontSize=12;" parent="WIyWlLk6GJQsqaUBKTNV-1" vertex="1" connectable="0">
          <mxGeometry x="537.25" y="640" width="187" height="120" as="geometry" />
        </mxCell>
        <mxCell id="43" value="" style="group;fontSize=12;" parent="42" vertex="1" connectable="0">
          <mxGeometry x="2.842170943040401e-14" width="186.99999999999994" height="110" as="geometry" />
        </mxCell>
        <mxCell id="44" value="&lt;font style=&quot;border-color: var(--border-color); font-size: 12px;&quot;&gt;«BDTComplexType&lt;/font&gt;&lt;font style=&quot;border-color: var(--border-color); font-size: 12px;&quot;&gt;»&lt;br style=&quot;border-color: var(--border-color); font-size: 12px;&quot;&gt;&lt;/font&gt;&lt;b style=&quot;border-color: var(--border-color); background-color: initial; font-size: 12px;&quot;&gt;PositiveAmount&lt;/b&gt;" style="swimlane;fontStyle=0;align=center;verticalAlign=top;childLayout=stackLayout;horizontal=1;startSize=40;horizontalStack=0;resizeParent=1;resizeParentMax=0;resizeLast=0;collapsible=0;marginBottom=0;html=1;shadow=1;labelBackgroundColor=none;fontFamily=Helvetica;fontSize=12;fillColor=#F6FDA6;" parent="43" vertex="1">
          <mxGeometry x="1.7208588957055184" width="183.56" height="90" as="geometry" />
        </mxCell>
        <mxCell id="45" value="&lt;span style=&quot;text-align: center; font-size: 12px;&quot;&gt;«&lt;/span&gt;&lt;span style=&quot;border-color: var(--border-color); text-align: center; background-color: initial; font-size: 12px;&quot;&gt;Facet&lt;/span&gt;&lt;span style=&quot;text-align: center; font-size: 12px;&quot;&gt;»&lt;/span&gt;&lt;br style=&quot;border-color: var(--border-color); text-align: center; font-size: 12px;&quot;&gt;&lt;span style=&quot;border-color: var(--border-color); text-align: center; background-color: initial; font-size: 12px;&quot;&gt;+&amp;nbsp; &amp;nbsp; fractionDigits = 0 {readOnly}&lt;br style=&quot;font-size: 12px;&quot;&gt;+&amp;nbsp; &amp;nbsp; minInclusive = 0 {readOnly}&lt;br style=&quot;font-size: 12px;&quot;&gt;&lt;/span&gt;" style="text;html=1;strokeColor=none;fillColor=#F6FDA6;align=left;verticalAlign=middle;spacingLeft=4;spacingRight=4;overflow=hidden;rotatable=0;points=[[0,0.5],[1,0.5]];portConstraint=eastwest;shadow=1;labelBackgroundColor=none;fontFamily=Helvetica;fontSize=12;strokeWidth=2;perimeterSpacing=0;" parent="44" vertex="1">
          <mxGeometry y="40" width="183.56" height="50" as="geometry" />
        </mxCell>
        <mxCell id="46" value="&lt;font style=&quot;font-size: 12px;&quot;&gt;&lt;i style=&quot;font-size: 12px;&quot;&gt;(from&amp;nbsp;&lt;span style=&quot;background-color: initial; font-size: 12px;&quot;&gt;QualifiedDataTypes)&lt;/span&gt;&lt;/i&gt;&lt;/font&gt;" style="text;html=1;strokeColor=none;fillColor=none;align=center;verticalAlign=middle;whiteSpace=wrap;rounded=0;shadow=1;fontFamily=Helvetica;fontSize=12;" parent="42" vertex="1">
          <mxGeometry x="1.7208588957055326" y="90" width="183.56" height="30" as="geometry" />
        </mxCell>
        <mxCell id="47" style="edgeStyle=none;sketch=0;jumpStyle=line;jumpSize=16;html=1;entryX=0.5;entryY=0;entryDx=0;entryDy=0;strokeColor=default;strokeWidth=1;fontFamily=Helvetica;fontSize=12;endArrow=blockThin;endFill=0;startSize=6;endSize=12;targetPerimeterSpacing=0;" parent="WIyWlLk6GJQsqaUBKTNV-1" source="44" target="21" edge="1">
          <mxGeometry relative="1" as="geometry" />
        </mxCell>
        <mxCell id="53" value="" style="group;fontSize=12;" parent="WIyWlLk6GJQsqaUBKTNV-1" vertex="1" connectable="0">
          <mxGeometry x="815.75" y="640" width="160" height="120" as="geometry" />
        </mxCell>
        <mxCell id="54" value="«&lt;span style=&quot;background-color: initial; font-size: 12px;&quot;&gt;BDTComplexType&lt;/span&gt;»&lt;br style=&quot;font-size: 12px;&quot;&gt;&lt;b style=&quot;background-color: initial; font-size: 12px;&quot;&gt;PowerType&lt;/b&gt;&lt;span style=&quot;font-family: &amp;quot;88a7a6+Roboto&amp;quot;; font-size: 12px;&quot;&gt;&lt;br style=&quot;font-size: 12px;&quot;&gt;&lt;/span&gt;" style="swimlane;fontStyle=0;align=center;verticalAlign=top;childLayout=stackLayout;horizontal=1;startSize=100;horizontalStack=0;resizeParent=1;resizeParentMax=0;resizeLast=0;collapsible=0;marginBottom=0;html=1;spacing=0;shadow=1;fillColor=#f6fda6;fontSize=12;" parent="53" vertex="1">
          <mxGeometry width="160" height="90" as="geometry" />
        </mxCell>
        <mxCell id="55" value="&lt;i style=&quot;border-color: var(--border-color); font-size: 12px;&quot;&gt;(from&amp;nbsp;&lt;span style=&quot;border-color: var(--border-color); background-color: initial; font-size: 12px;&quot;&gt;QualifiedDataTypes)&lt;/span&gt;&lt;/i&gt;" style="text;html=1;strokeColor=none;fillColor=none;align=center;verticalAlign=middle;whiteSpace=wrap;rounded=0;shadow=1;fontFamily=Helvetica;fontSize=12;" parent="53" vertex="1">
          <mxGeometry x="5" y="90" width="150" height="30" as="geometry" />
        </mxCell>
        <mxCell id="56" style="edgeStyle=none;sketch=0;jumpStyle=line;jumpSize=16;html=1;entryX=0.5;entryY=0;entryDx=0;entryDy=0;strokeColor=default;strokeWidth=1;fontFamily=Helvetica;fontSize=12;endArrow=blockThin;endFill=0;startSize=6;endSize=12;targetPerimeterSpacing=0;" parent="WIyWlLk6GJQsqaUBKTNV-1" source="54" target="28" edge="1">
          <mxGeometry relative="1" as="geometry" />
        </mxCell>
        <mxCell id="57" value="&lt;div style=&quot;text-align: right; line-height: 120%; font-size: 12px;&quot;&gt;&lt;i style=&quot;font-size: 12px;&quot;&gt;string&lt;/i&gt;&lt;/div&gt;&lt;div style=&quot;text-align: center; line-height: 120%; font-size: 12px;&quot;&gt;&lt;span style=&quot;background-color: initial; text-align: right; font-size: 12px;&quot;&gt;&lt;br style=&quot;font-size: 12px;&quot;&gt;&lt;/span&gt;&lt;/div&gt;«&lt;span style=&quot;background-color: initial; font-size: 12px;&quot;&gt;XSDsimpleType&lt;/span&gt;»&lt;br style=&quot;font-size: 12px;&quot;&gt;&lt;b style=&quot;font-size: 12px;&quot;&gt;&lt;div style=&quot;line-height: 120%; font-size: 12px;&quot;&gt;&lt;b style=&quot;background-color: initial; font-size: 12px;&quot;&gt;XSDDatatypes::normalizedString&lt;/b&gt;&lt;/div&gt;&lt;/b&gt;" style="swimlane;fontStyle=0;align=center;verticalAlign=top;childLayout=stackLayout;horizontal=1;startSize=100;horizontalStack=0;resizeParent=1;resizeParentMax=0;resizeLast=0;collapsible=0;marginBottom=0;html=1;spacing=0;shadow=1;fontSize=12;" parent="WIyWlLk6GJQsqaUBKTNV-1" vertex="1">
          <mxGeometry x="1122.5" y="80" width="200" height="90" as="geometry" />
        </mxCell>
        <mxCell id="58" value="" style="group;fontSize=12;" parent="WIyWlLk6GJQsqaUBKTNV-1" vertex="1" connectable="0">
          <mxGeometry x="1122.5" y="220" width="200" height="120" as="geometry" />
        </mxCell>
        <mxCell id="59" value="«&lt;span style=&quot;background-color: initial; font-size: 12px;&quot;&gt;PRIMSimpleType&lt;/span&gt;»&lt;br style=&quot;font-size: 12px;&quot;&gt;&lt;b style=&quot;background-color: initial; font-size: 12px;&quot;&gt;NormalizedString&lt;/b&gt;&lt;span style=&quot;font-family: &amp;quot;88a7a6+Roboto&amp;quot;; font-size: 12px;&quot;&gt;&lt;br style=&quot;font-size: 12px;&quot;&gt;&lt;/span&gt;" style="swimlane;fontStyle=0;align=center;verticalAlign=top;childLayout=stackLayout;horizontal=1;startSize=100;horizontalStack=0;resizeParent=1;resizeParentMax=0;resizeLast=0;collapsible=0;marginBottom=0;html=1;spacing=0;shadow=1;fillColor=#f6fda6;fontSize=12;" parent="58" vertex="1">
          <mxGeometry width="200" height="90" as="geometry" />
        </mxCell>
        <mxCell id="60" value="&lt;font style=&quot;font-size: 12px;&quot;&gt;&lt;i style=&quot;font-size: 12px;&quot;&gt;(from&amp;nbsp;&lt;span style=&quot;background-color: initial; font-size: 12px;&quot;&gt;PrimitiveDataTypes)&lt;/span&gt;&lt;/i&gt;&lt;/font&gt;" style="text;html=1;strokeColor=none;fillColor=none;align=center;verticalAlign=middle;whiteSpace=wrap;rounded=0;shadow=1;fontFamily=Helvetica;fontSize=12;" parent="58" vertex="1">
          <mxGeometry x="6.25" y="90" width="187.5" height="30" as="geometry" />
        </mxCell>
        <mxCell id="61" style="edgeStyle=none;sketch=0;jumpStyle=line;jumpSize=16;html=1;entryX=0.5;entryY=1;entryDx=0;entryDy=0;strokeColor=default;strokeWidth=1;fontFamily=Helvetica;fontSize=12;endArrow=blockThin;endFill=0;startSize=6;endSize=12;targetPerimeterSpacing=0;" parent="WIyWlLk6GJQsqaUBKTNV-1" source="59" target="57" edge="1">
          <mxGeometry relative="1" as="geometry" />
        </mxCell>
        <mxCell id="67" style="edgeStyle=none;sketch=0;jumpStyle=line;jumpSize=16;html=1;entryX=0.5;entryY=0;entryDx=0;entryDy=0;strokeColor=default;strokeWidth=1;fontFamily=Helvetica;fontSize=12;endArrow=blockThin;endFill=0;startSize=6;endSize=12;targetPerimeterSpacing=0;" parent="WIyWlLk6GJQsqaUBKTNV-1" source="64" target="60" edge="1">
          <mxGeometry relative="1" as="geometry" />
        </mxCell>
        <mxCell id="68" value="" style="group;fontSize=12;" parent="WIyWlLk6GJQsqaUBKTNV-1" vertex="1" connectable="0">
          <mxGeometry x="1050" y="360" width="345" height="240" as="geometry" />
        </mxCell>
        <mxCell id="62" value="" style="group;fontSize=12;" parent="68" vertex="1" connectable="0">
          <mxGeometry width="345" height="210" as="geometry" />
        </mxCell>
        <mxCell id="63" value="" style="group;fontSize=12;" parent="62" vertex="1" connectable="0">
          <mxGeometry width="345" height="210" as="geometry" />
        </mxCell>
        <mxCell id="64" value="&lt;font style=&quot;border-color: var(--border-color); font-size: 12px;&quot;&gt;«C&lt;/font&gt;&lt;font style=&quot;border-color: var(--border-color); font-size: 12px;&quot;&gt;DTComplexType,LDT,ECDMChange,CDT»&lt;br style=&quot;border-color: var(--border-color); font-size: 12px;&quot;&gt;&lt;/font&gt;&lt;b style=&quot;border-color: var(--border-color); background-color: initial; font-size: 12px;&quot;&gt;IdentifierType&lt;/b&gt;" style="swimlane;fontStyle=0;align=center;verticalAlign=top;childLayout=stackLayout;horizontal=1;startSize=40;horizontalStack=0;resizeParent=1;resizeParentMax=0;resizeLast=0;collapsible=0;marginBottom=0;html=1;shadow=1;labelBackgroundColor=none;fontFamily=Helvetica;fontSize=12;fillColor=#F6FDA6;" parent="63" vertex="1">
          <mxGeometry x="3.1688888888888584" width="338.6622222222223" height="210" as="geometry" />
        </mxCell>
        <mxCell id="65" value="&lt;span style=&quot;text-align: center; font-size: 12px;&quot;&gt;«&lt;/span&gt;&lt;span style=&quot;border-color: var(--border-color); text-align: center; background-color: initial; font-size: 12px;&quot;&gt;Supplementary&lt;/span&gt;&lt;span style=&quot;text-align: center; font-size: 12px;&quot;&gt;»&lt;/span&gt;&lt;br style=&quot;border-color: var(--border-color); text-align: center; font-size: 12px;&quot;&gt;&lt;span style=&quot;border-color: var(--border-color); text-align: center; background-color: initial; font-size: 12px;&quot;&gt;+&amp;nbsp; &amp;nbsp; identificationScheme: String [0..1]&lt;br style=&quot;font-size: 12px;&quot;&gt;+&amp;nbsp; &amp;nbsp; identificationScheme.Agency: String [0..1]&lt;br style=&quot;font-size: 12px;&quot;&gt;+&amp;nbsp; &amp;nbsp; identificationScheme.AgencyName: String [0..1]&lt;br style=&quot;font-size: 12px;&quot;&gt;+&amp;nbsp; &amp;nbsp; identificationScheme.Name: String [0..1]&lt;br style=&quot;font-size: 12px;&quot;&gt;+&amp;nbsp; &amp;nbsp; identificationScheme.UniformResource: String [0..1]&lt;br style=&quot;font-size: 12px;&quot;&gt;+&amp;nbsp; &amp;nbsp; identificationScheme.Version: String [0..1]&lt;br style=&quot;font-size: 12px;&quot;&gt;+&amp;nbsp; &amp;nbsp; identificationSchemeData.UniformResource: String [0..1]&lt;br style=&quot;font-size: 12px;&quot;&gt;&lt;/span&gt;" style="text;html=1;strokeColor=none;fillColor=#F6FDA6;align=left;verticalAlign=middle;spacingLeft=4;spacingRight=4;overflow=hidden;rotatable=0;points=[[0,0.5],[1,0.5]];portConstraint=eastwest;shadow=1;labelBackgroundColor=none;fontFamily=Helvetica;fontSize=12;strokeWidth=2;perimeterSpacing=0;" parent="64" vertex="1">
          <mxGeometry y="40" width="338.6622222222223" height="170" as="geometry" />
        </mxCell>
        <mxCell id="66" value="&lt;font style=&quot;font-size: 12px;&quot;&gt;&lt;i style=&quot;font-size: 12px;&quot;&gt;(from&amp;nbsp;&lt;span style=&quot;background-color: initial; font-size: 12px;&quot;&gt;CoreDataTypes)&lt;/span&gt;&lt;/i&gt;&lt;/font&gt;" style="text;html=1;strokeColor=none;fillColor=none;align=center;verticalAlign=middle;whiteSpace=wrap;rounded=0;shadow=1;fontFamily=Helvetica;fontSize=12;" parent="68" vertex="1">
          <mxGeometry x="3.174846625766861" y="210" width="338.6503067484663" height="30" as="geometry" />
        </mxCell>
        <mxCell id="70" value="" style="group;fontSize=12;" parent="WIyWlLk6GJQsqaUBKTNV-1" vertex="1" connectable="0">
          <mxGeometry x="1125" y="640" width="195" height="120" as="geometry" />
        </mxCell>
        <mxCell id="71" value="" style="group;fontSize=12;" parent="70" vertex="1" connectable="0">
          <mxGeometry width="195" height="110" as="geometry" />
        </mxCell>
        <mxCell id="72" value="«&lt;span style=&quot;border-color: var(--border-color); background-color: initial; font-size: 12px;&quot;&gt;BDTComplexType&lt;/span&gt;»&lt;br style=&quot;border-color: var(--border-color); font-size: 12px;&quot;&gt;&lt;b style=&quot;border-color: var(--border-color); background-color: initial; font-size: 12px;&quot;&gt;CertificateSerialNumberType&lt;/b&gt;" style="swimlane;fontStyle=0;align=center;verticalAlign=top;childLayout=stackLayout;horizontal=1;startSize=40;horizontalStack=0;resizeParent=1;resizeParentMax=0;resizeLast=0;collapsible=0;marginBottom=0;html=1;shadow=1;labelBackgroundColor=none;fontFamily=Helvetica;fontSize=12;fillColor=#F6FDA6;" parent="71" vertex="1">
          <mxGeometry x="1.792546583850931" width="191.41490683229816" height="90" as="geometry" />
        </mxCell>
        <mxCell id="73" value="&lt;span style=&quot;text-align: center; font-size: 12px;&quot;&gt;«&lt;/span&gt;&lt;span style=&quot;border-color: var(--border-color); text-align: center; background-color: initial; font-size: 12px;&quot;&gt;Facet&lt;/span&gt;&lt;span style=&quot;text-align: center; font-size: 12px;&quot;&gt;»&lt;/span&gt;&lt;br style=&quot;border-color: var(--border-color); text-align: center; font-size: 12px;&quot;&gt;&lt;span style=&quot;border-color: var(--border-color); text-align: center; background-color: initial; font-size: 12px;&quot;&gt;+&amp;nbsp; &amp;nbsp; maxLength = 20 {readOnly}&lt;br style=&quot;font-size: 12px;&quot;&gt;&lt;/span&gt;" style="text;html=1;strokeColor=none;fillColor=#F6FDA6;align=left;verticalAlign=middle;spacingLeft=4;spacingRight=4;overflow=hidden;rotatable=0;points=[[0,0.5],[1,0.5]];portConstraint=eastwest;shadow=1;labelBackgroundColor=none;fontFamily=Helvetica;fontSize=12;strokeWidth=2;perimeterSpacing=0;" parent="72" vertex="1">
          <mxGeometry y="40" width="191.41490683229816" height="50" as="geometry" />
        </mxCell>
        <mxCell id="74" value="&lt;i style=&quot;border-color: var(--border-color); font-size: 12px;&quot;&gt;(from&amp;nbsp;&lt;span style=&quot;border-color: var(--border-color); background-color: initial; font-size: 12px;&quot;&gt;QualifiedDataTypes)&lt;/span&gt;&lt;/i&gt;" style="text;html=1;strokeColor=none;fillColor=none;align=center;verticalAlign=middle;whiteSpace=wrap;rounded=0;shadow=1;fontFamily=Helvetica;fontSize=12;" parent="70" vertex="1">
          <mxGeometry x="1.7944785276073612" y="90" width="191.4110429447853" height="30" as="geometry" />
        </mxCell>
        <mxCell id="75" style="edgeStyle=none;sketch=0;jumpStyle=line;jumpSize=16;html=1;entryX=0.5;entryY=0;entryDx=0;entryDy=0;strokeColor=default;strokeWidth=1;fontFamily=Helvetica;fontSize=12;endArrow=blockThin;endFill=0;startSize=6;endSize=12;targetPerimeterSpacing=0;" parent="WIyWlLk6GJQsqaUBKTNV-1" source="72" target="66" edge="1">
          <mxGeometry relative="1" as="geometry" />
        </mxCell>
      </root>
    </mxGraphModel>
  </diagram>
</mxfile>
